<svg width="2500" height="1151" viewBox="0 0 2500 1151" fill="none" xmlns="http://www.w3.org/2000/svg">
    <path fill-rule="evenodd" clip-rule="evenodd" d="M73.5256 379.339V543.407H553.446C609.229 543.407 680.498 491.826 680.498 406.498C680.498 372.18 693.623 349.794 653.287 304.4L591.901 231.666C556.727 198.852 596.103 198.852 625.649 198.852H828.275V543.407H988.971V198.852H1205.55V51.2952H504.226C418.898 51.2952 377.174 133.225 379.521 175.883C381.882 218.54 389.728 272.209 460.634 336.682C525.314 395.474 428.612 379.339 418.897 379.339H73.5256V379.339ZM1560.89 51.2952H1301.65L1156.32 543.42H1318.05L1344.29 474.512H1514.92L1540.25 543.42H1698.68L1560.89 51.2952V51.2952ZM1380.4 356.37L1436.18 175.883L1488.7 356.37H1380.4V356.37ZM2210.61 379.339C2148.26 379.339 2148.26 356.37 2148.26 356.37C2201.68 356.37 2249.05 278.539 2249.05 198.852C2249.05 119.166 2171.23 51.2952 2108.86 51.2952H1760.09V543.42H1937.31V379.352C1937.31 379.352 2012.76 467.949 2052.14 504.044C2091.53 540.139 2094.8 543.42 2148.25 543.42H2426.44V379.352C2426.46 379.34 2272.95 379.339 2210.61 379.339V379.339ZM2049.81 264.492H1937.33V175.883H2049.81C2101.37 175.883 2110.3 264.492 2049.81 264.492ZM73.5256 605.753H254.83L300.769 769.846L343.426 605.753H533.758L582.978 769.846L632.211 605.753H789.716L645.324 1097.99H500.944L437.678 864.992L366.396 1097.99H218.735L73.5256 605.753ZM1161.81 608.593H902.566L757.253 1100.7H918.973L945.224 1031.81H1115.87L1141.2 1100.7H1299.64L1161.81 608.593ZM981.331 913.655L1037.11 733.168L1089.62 913.655H981.331ZM2213.87 753.439C2184.37 753.439 2152.19 756.889 2187.38 789.69L2248.78 862.437C2289.1 907.831 2288.45 926.754 2288.45 961.098C2288.45 1046.41 2204.04 1097.99 2148.26 1097.99L1760.52 1100.6C1707.09 1100.6 1703.83 1097.33 1664.44 1061.24C1625.07 1025.14 1549.59 936.534 1549.59 936.534V1100.6H1372.4V608.489H1721.17C1783.51 608.489 1861.36 676.373 1861.36 756.046C1861.36 835.746 1813.99 913.564 1760.54 913.564C1760.54 913.564 1784.04 937.195 1823.42 937.195C1862.81 937.195 2014.42 937.351 2014.42 937.351C2024.13 937.351 2120.82 953.485 2056.15 894.693C1985.24 830.22 1977.4 776.577 1975.04 733.92C1972.68 691.262 2009.56 605.766 2094.85 605.766H2426.49V753.452H2213.87V753.439V753.439ZM1662.08 821.673H1549.58V733.064H1662.08C1713.66 733.064 1722.57 821.673 1662.08 821.673Z" fill="white"/>
</svg>
